<?xml version="1.0" standalone="no"?>
<!DOCTYPE svg PUBLIC "-//W3C//DTD SVG 1.1//EN" "http://www.w3.org/Graphics/SVG/1.1/DTD/svg11.dtd">
<svg width="194mm" height="194mm" viewBox="-75 -75 194 194" xmlns="http://www.w3.org/2000/svg" version="1.1">
<title>OpenSCAD Model</title>
<path d="
M 10.9131,118.032 L 14.2477,117.691 L 17.6487,117.172 L 21.1084,116.476 L 24.6189,115.605 L 28.1722,114.562
 L 31.76,113.349 L 35.3741,111.97 L 39.0063,110.428 L 42.648,108.727 L 46.2909,106.871 L 49.9264,104.864
 L 53.5462,102.712 L 57.1417,100.419 L 60.7045,97.9913 L 64.2263,95.4344 L 67.6988,92.7543 L 71.1138,89.9575
 L 74.4633,87.0506 L 76.4982,85.1809 L 76.5331,85.1811 L 76.821,85.1669 L 77.1098,85.1374 L 77.399,85.0932
 L 77.6883,85.035 L 77.9775,84.9632 L 78.2663,84.8785 L 78.5543,84.7811 L 78.8414,84.6716 L 79.1271,84.5502
 L 79.4112,84.4175 L 79.6932,84.2738 L 79.9729,84.1195 L 80.2498,83.9549 L 80.5235,83.7803 L 80.7936,83.5963
 L 81.0596,83.4031 L 81.3213,83.2012 L 81.578,82.991 L 81.8293,82.7728 L 82.075,82.5471 L 82.3144,82.3144
 L 82.5471,82.075 L 82.7728,81.8293 L 82.991,81.578 L 83.2012,81.3213 L 83.4031,81.0596 L 83.5963,80.7936
 L 83.7803,80.5235 L 83.9549,80.2498 L 84.1195,79.9729 L 84.2738,79.6932 L 84.4175,79.4112 L 84.5502,79.1271
 L 84.6716,78.8414 L 84.7811,78.5543 L 84.8785,78.2663 L 84.9632,77.9775 L 85.035,77.6883 L 85.0932,77.399
 L 85.1374,77.1098 L 85.1669,76.821 L 85.1811,76.5331 L 85.1809,76.4982 L 87.0506,74.4633 L 89.9575,71.1138
 L 92.7543,67.6988 L 95.4344,64.2263 L 97.9913,60.7045 L 100.419,57.1417 L 102.712,53.5462 L 104.864,49.9264
 L 106.871,46.2909 L 108.727,42.648 L 110.428,39.0063 L 111.97,35.3741 L 113.349,31.76 L 114.562,28.1722
 L 115.605,24.6189 L 116.476,21.1084 L 117.172,17.6487 L 117.691,14.2477 L 118.032,10.9131 L 118.194,7.65269
 L 118.174,4.47403 L 117.973,1.3846 L 117.589,-1.60817 L 117.023,-4.49695 L 116.276,-7.27432 L 115.348,-9.93292
 L 114.241,-12.4653 L 112.956,-14.8642 L 111.497,-17.1223 L 109.868,-19.2326 L 108.093,-21.1663 L 105.154,-24.1048
 L 103.221,-25.8798 L 101.11,-27.5091 L 98.8523,-28.9679 L 96.4534,-30.2525 L 93.921,-31.3599 L 91.2624,-32.288
 L 90.0299,-32.6196 L 89.4088,-33.581 L 87.8487,-35.6017 L 86.1499,-37.4524 L 84.3907,-39.2115 L 83.4904,-41.7905
 L 82.383,-44.3229 L 81.0984,-46.7218 L 79.6396,-48.9798 L 78.0103,-51.0901 L 76.2353,-53.0238 L 64.6084,-64.6507
 L 62.6747,-66.4257 L 60.5644,-68.055 L 58.3063,-69.5139 L 55.9074,-70.7984 L 53.375,-71.9059 L 50.7164,-72.834
 L 47.9391,-73.5813 L 45.0503,-74.1469 L 42.0575,-74.5304 L 38.968,-74.7318 L 35.7894,-74.7516 L 32.529,-74.5904
 L 29.1944,-74.2493 L 25.7934,-73.7298 L 22.3337,-73.0335 L 18.8232,-72.1626 L 15.2699,-71.1194 L 11.6821,-69.9068
 L 8.06795,-68.5277 L 4.43582,-66.9857 L 0.794098,-65.2845 L -2.84875,-63.4284 L -6.48431,-61.4219 L -10.1041,-59.2696
 L -13.6996,-56.9769 L -17.2624,-54.5492 L -20.7842,-51.9922 L -24.2567,-49.3122 L -27.6717,-46.5154 L -31.0212,-43.6085
 L -34.2973,-40.5984 L -37.4922,-37.4922 L -40.5984,-34.2973 L -43.6085,-31.0212 L -46.5154,-27.6717 L -49.3122,-24.2567
 L -51.9922,-20.7842 L -54.5492,-17.2624 L -56.9769,-13.6996 L -59.2696,-10.1041 L -61.4219,-6.48431 L -63.4284,-2.84875
 L -65.2845,0.794098 L -66.9857,4.43582 L -68.5277,8.06795 L -69.9068,11.6821 L -71.1194,15.2699 L -72.1626,18.8232
 L -73.0335,22.3337 L -73.7298,25.7934 L -74.2493,29.1944 L -74.5904,32.529 L -74.7516,35.7894 L -74.7318,38.968
 L -74.5304,42.0575 L -74.1469,45.0503 L -73.5813,47.9391 L -72.834,50.7164 L -71.9059,53.375 L -70.7984,55.9074
 L -69.5139,58.3063 L -68.055,60.5644 L -66.4257,62.6747 L -64.6507,64.6084 L -53.0238,76.2353 L -51.0901,78.0103
 L -48.9798,79.6396 L -46.7218,81.0984 L -44.3229,82.383 L -41.7905,83.4904 L -39.2115,84.3907 L -37.4524,86.1499
 L -35.6017,87.8487 L -33.581,89.4088 L -32.6196,90.0299 L -32.288,91.2624 L -31.3599,93.921 L -30.2525,96.4534
 L -28.9679,98.8523 L -27.5091,101.11 L -25.8798,103.221 L -24.1048,105.154 L -21.1663,108.093 L -19.2326,109.868
 L -17.1223,111.497 L -14.8642,112.956 L -12.4653,114.241 L -9.93292,115.348 L -7.27432,116.276 L -4.49695,117.023
 L -1.60817,117.589 L 1.3846,117.973 L 4.47403,118.174 L 7.65269,118.194 z
M 4.49365,117.624 L 1.4375,117.425 L -1.52028,117.046 L -4.3725,116.487 L -7.11201,115.75 L -9.73181,114.836
 L -12.225,113.745 L -14.5847,112.482 L -16.8044,111.048 L -18.8779,109.447 L -20.7857,107.696 L -23.7075,104.774
 L -25.4587,102.866 L -27.0596,100.793 L -28.4937,98.5728 L -29.7573,96.213 L -30.8476,93.7199 L -31.7621,91.1001
 L -32.1435,89.6827 L -33.2632,88.9594 L -35.247,87.4276 L -37.0718,85.7526 L -38.9179,83.9065 L -38.9695,83.8926
 L -41.5893,82.9781 L -44.0825,81.8878 L -46.4422,80.6242 L -48.662,79.1902 L -50.7354,77.5892 L -52.6432,75.8381
 L -64.2535,64.2278 L -66.0047,62.32 L -67.6056,60.2466 L -69.0397,58.0268 L -70.3033,55.6671 L -71.3935,53.1739
 L -72.3081,50.5541 L -73.0452,47.8146 L -73.6037,44.9624 L -73.9827,42.0046 L -74.1819,38.9484 L -74.2015,35.8013
 L -74.0418,32.5706 L -73.7036,29.264 L -73.188,25.8892 L -72.4968,22.4542 L -71.6316,18.9669 L -70.5948,15.4355
 L -69.3891,11.8683 L -68.0174,8.27353 L -66.4832,4.65974 L -64.7902,1.0354 L -62.9425,-2.59096 L -60.9446,-6.21082
 L -58.8013,-9.8156 L -56.5177,-13.3968 L -54.0993,-16.9459 L -51.5519,-20.4546 L -48.8817,-23.9144 L -46.0949,-27.3172
 L -43.1982,-30.6549 L -40.1987,-33.9195 L -37.1033,-37.1033 L -33.9195,-40.1987 L -30.6549,-43.1982 L -27.3172,-46.0949
 L -23.9144,-48.8817 L -20.4546,-51.5519 L -16.9459,-54.0993 L -13.3968,-56.5177 L -9.8156,-58.8013 L -6.21082,-60.9446
 L -2.59096,-62.9425 L 1.0354,-64.7902 L 4.65974,-66.4832 L 8.27353,-68.0174 L 11.8683,-69.3891 L 15.4355,-70.5948
 L 18.9669,-71.6316 L 22.4542,-72.4968 L 25.8892,-73.188 L 29.264,-73.7036 L 32.5706,-74.0418 L 35.8013,-74.2015
 L 38.9484,-74.1819 L 42.0046,-73.9827 L 44.9624,-73.6037 L 47.8146,-73.0452 L 50.5541,-72.3081 L 53.1739,-71.3935
 L 55.6671,-70.3033 L 58.0268,-69.0397 L 60.2466,-67.6056 L 62.32,-66.0047 L 64.2278,-64.2535 L 75.8381,-52.6432
 L 77.5892,-50.7354 L 79.1902,-48.662 L 80.6242,-46.4422 L 81.8878,-44.0825 L 82.9781,-41.5893 L 83.8926,-38.9695
 L 83.9065,-38.9179 L 85.7526,-37.0718 L 87.4276,-35.247 L 88.9594,-33.2632 L 89.6827,-32.1435 L 91.1001,-31.7621
 L 93.7199,-30.8476 L 96.213,-29.7573 L 98.5728,-28.4937 L 100.793,-27.0596 L 102.866,-25.4587 L 104.774,-23.7075
 L 107.696,-20.7857 L 109.447,-18.8779 L 111.048,-16.8044 L 112.482,-14.5847 L 113.745,-12.225 L 114.836,-9.73181
 L 115.75,-7.11201 L 116.487,-4.3725 L 117.046,-1.52028 L 117.425,1.4375 L 117.624,4.49365 L 117.644,7.64081
 L 117.484,10.8715 L 117.146,14.1781 L 116.63,17.5528 L 115.939,20.9879 L 115.074,24.4752 L 114.037,28.0066
 L 112.831,31.5738 L 111.46,35.1685 L 109.925,38.7823 L 108.232,42.4067 L 106.385,46.0331 L 104.387,49.6529
 L 102.243,53.2577 L 99.9598,56.8389 L 97.5414,60.388 L 94.994,63.8967 L 92.3238,67.3565 L 89.537,70.7593
 L 86.6403,74.097 L 84.6296,76.2854 L 84.6311,76.5212 L 84.6183,76.7794 L 84.5916,77.0402 L 84.5515,77.3031
 L 84.4982,77.5678 L 84.4322,77.8337 L 84.3539,78.1007 L 84.2634,78.3682 L 84.1613,78.6358 L 84.0478,78.9032
 L 83.9232,79.1699 L 83.7879,79.4354 L 83.6422,79.6994 L 83.4865,79.9613 L 83.3211,80.2207 L 83.1464,80.4771
 L 82.9628,80.73 L 82.7707,80.9789 L 82.5704,81.2234 L 82.3625,81.463 L 82.1474,81.6971 L 81.9254,81.9254
 L 81.6971,82.1474 L 81.463,82.3625 L 81.2234,82.5704 L 80.9789,82.7707 L 80.73,82.9628 L 80.4771,83.1464
 L 80.2207,83.3211 L 79.9613,83.4865 L 79.6994,83.6422 L 79.4354,83.7879 L 79.1699,83.9232 L 78.9032,84.0478
 L 78.6358,84.1613 L 78.3682,84.2634 L 78.1007,84.3539 L 77.8337,84.4322 L 77.5678,84.4982 L 77.3031,84.5515
 L 77.0402,84.5916 L 76.7794,84.6183 L 76.5212,84.6311 L 76.2854,84.6296 L 74.097,86.6403 L 70.7593,89.537
 L 67.3565,92.3238 L 63.8967,94.994 L 60.388,97.5414 L 56.8389,99.9598 L 53.2577,102.243 L 49.6529,104.387
 L 46.0331,106.385 L 42.4067,108.232 L 38.7823,109.925 L 35.1685,111.46 L 31.5738,112.831 L 28.0066,114.037
 L 24.4752,115.074 L 20.9879,115.939 L 17.5528,116.63 L 14.1781,117.146 L 10.8715,117.484 L 7.64081,117.644
 z
M 10.8072,116.636 L 14.0706,116.302 L 17.4047,115.793 L 20.8016,115.109 L 24.253,114.253 L 27.7507,113.226
 L 31.2861,112.031 L 34.8508,110.671 L 38.4363,109.149 L 42.0338,107.468 L 45.6346,105.634 L 49.2302,103.649
 L 52.8119,101.52 L 56.371,99.25 L 59.8989,96.8461 L 63.3872,94.3135 L 66.8274,91.6584 L 70.2113,88.8871
 L 73.5307,86.0063 L 75.9839,83.7522 L 76.096,83.7666 L 76.2963,83.7796 L 76.5029,83.7809 L 76.7152,83.7704
 L 76.9327,83.7482 L 77.155,83.7142 L 77.3815,83.6687 L 77.6116,83.6116 L 77.8448,83.5431 L 78.0804,83.4635
 L 78.3181,83.3728 L 78.5571,83.2713 L 78.797,83.1593 L 79.037,83.0369 L 79.2767,82.9046 L 79.5155,82.7627
 L 79.7528,82.6114 L 79.988,82.4511 L 80.2205,82.2823 L 80.4499,82.1053 L 80.6755,81.9205 L 80.8968,81.7285
 L 81.1132,81.5296 L 81.3243,81.3243 L 81.5296,81.1132 L 81.7285,80.8968 L 81.9205,80.6755 L 82.1053,80.4499
 L 82.2823,80.2205 L 82.4511,79.988 L 82.6114,79.7528 L 82.7627,79.5155 L 82.9046,79.2767 L 83.0369,79.037
 L 83.1593,78.797 L 83.2713,78.5571 L 83.3728,78.3181 L 83.4635,78.0804 L 83.5431,77.8448 L 83.6116,77.6116
 L 83.6687,77.3815 L 83.7142,77.155 L 83.7482,76.9327 L 83.7704,76.7152 L 83.7809,76.5029 L 83.7796,76.2963
 L 83.7666,76.096 L 83.7522,75.9839 L 86.0063,73.5307 L 88.8871,70.2113 L 91.6584,66.8274 L 94.3135,63.3872
 L 96.8461,59.8989 L 99.25,56.371 L 101.52,52.8119 L 103.649,49.2302 L 105.634,45.6346 L 107.468,42.0338
 L 109.149,38.4363 L 110.671,34.8508 L 112.031,31.2861 L 113.226,27.7507 L 114.253,24.253 L 115.109,20.8016
 L 115.793,17.4047 L 116.302,14.0706 L 116.636,10.8072 L 116.793,7.62245 L 116.774,4.52397 L 116.578,1.51926
 L 116.206,-1.38445 L 115.659,-4.18018 L 114.937,-6.86118 L 114.044,-9.42101 L 112.98,-11.8535 L 111.749,-14.1527
 L 110.353,-16.3132 L 108.796,-18.3298 L 107.082,-20.1975 L 104.186,-23.0936 L 102.318,-24.8081 L 100.301,-26.365
 L 98.1408,-27.7608 L 95.8415,-28.9921 L 93.4091,-30.0558 L 90.8492,-30.9494 L 89.1462,-31.4076 L 88.2648,-32.772
 L 86.777,-34.6989 L 85.1387,-36.4836 L 83.1448,-38.4776 L 83.0799,-38.7187 L 82.1863,-41.2785 L 81.1226,-43.711
 L 79.8913,-46.0103 L 78.4956,-48.1708 L 76.9386,-50.1873 L 75.2242,-52.055 L 63.6396,-63.6396 L 61.7719,-65.354
 L 59.7553,-66.911 L 57.5948,-68.3068 L 55.2956,-69.538 L 52.8631,-70.6017 L 50.3033,-71.4953 L 47.6223,-72.2167
 L 44.8266,-72.7641 L 41.9228,-73.1362 L 38.9181,-73.3321 L 35.8196,-73.3514 L 32.6349,-73.1939 L 29.3715,-72.8601
 L 26.0373,-72.3508 L 22.6405,-71.6672 L 19.1891,-70.8109 L 15.6914,-69.7841 L 12.156,-68.5891 L 8.59123,-67.2289
 L 5.00581,-65.7067 L 1.40833,-64.0263 L -2.19254,-62.1915 L -5.78813,-60.207 L -9.36978,-58.0774 L -12.9289,-55.8079
 L -16.4568,-53.404 L -19.9451,-50.8714 L -23.3853,-48.2163 L -26.7692,-45.445 L -30.0886,-42.5642 L -33.3356,-39.5809
 L -36.5022,-36.5022 L -39.5809,-33.3356 L -42.5642,-30.0886 L -45.445,-26.7692 L -48.2163,-23.3853 L -50.8714,-19.9451
 L -53.404,-16.4568 L -55.8079,-12.9289 L -58.0774,-9.36978 L -60.207,-5.78813 L -62.1915,-2.19254 L -64.0263,1.40833
 L -65.7067,5.00581 L -67.2289,8.59123 L -68.5891,12.156 L -69.7841,15.6914 L -70.8109,19.1891 L -71.6672,22.6405
 L -72.3508,26.0373 L -72.8601,29.3715 L -73.1939,32.6349 L -73.3514,35.8196 L -73.3321,38.9181 L -73.1362,41.9228
 L -72.7641,44.8266 L -72.2167,47.6223 L -71.4953,50.3033 L -70.6017,52.8631 L -69.538,55.2956 L -68.3068,57.5948
 L -66.911,59.7553 L -65.354,61.7719 L -63.6396,63.6396 L -52.055,75.2242 L -50.1873,76.9386 L -48.1708,78.4956
 L -46.0103,79.8913 L -43.711,81.1226 L -41.2785,82.1863 L -38.7187,83.0799 L -38.4776,83.1448 L -36.4836,85.1387
 L -34.6989,86.777 L -32.772,88.2648 L -31.4076,89.1462 L -30.9494,90.8492 L -30.0558,93.4091 L -28.9921,95.8415
 L -27.7608,98.1408 L -26.365,100.301 L -24.8081,102.318 L -23.0936,104.186 L -20.1975,107.082 L -18.3298,108.796
 L -16.3132,110.353 L -14.1527,111.749 L -11.8535,112.98 L -9.42101,114.044 L -6.86118,114.937 L -4.18018,115.659
 L -1.38445,116.206 L 1.51926,116.578 L 4.52397,116.774 L 7.62245,116.793 z
M 5.08722,107.36 L 2.34959,107.181 L -0.296005,106.842 L -2.84323,106.343 L -5.28592,105.686 L -7.61819,104.872
 L -9.83444,103.903 L -11.9293,102.781 L -13.8978,101.509 L -14.4521,101.081 L -13.6817,101.35 L -11.1497,102.032
 L -8.50926,102.549 L -5.76686,102.9 L -2.92908,103.085 L -0.00274658,103.103 L 3.00508,102.955 L 6.08716,102.639
 L 9.23608,102.158 L 12.4442,101.513 L 15.7039,100.704 L 19.0072,99.7341 L 22.3463,98.6055 L 25.713,97.3209
 L 29.0992,95.8833 L 32.4968,94.2962 L 35.8976,92.5634 L 39.2935,90.6891 L 42.6762,88.6778 L 46.0375,86.5344
 L 49.3694,84.264 L 52.6639,81.8721 L 55.9131,79.3645 L 59.109,76.7472 L 62.244,74.0264 L 64.7057,71.7646
 L 64.7181,71.7807 L 64.8134,71.8844 L 65.5084,72.5795 L 65.6122,72.6747 L 65.7242,72.7612 L 65.8443,72.8388
 L 65.972,72.9072 L 66.1071,72.9663 L 66.2493,73.0159 L 66.3983,73.056 L 66.5536,73.0864 L 66.7149,73.1071
 L 66.8819,73.118 L 67.054,73.119 L 67.2309,73.1103 L 67.4122,73.0918 L 67.5974,73.0635 L 67.7862,73.0255
 L 67.9779,72.9779 L 68.1722,72.9209 L 68.3686,72.8545 L 68.5667,72.7789 L 68.7659,72.6943 L 68.9657,72.601
 L 69.1658,72.4991 L 69.3655,72.3888 L 69.5645,72.2705 L 69.7622,72.1444 L 69.9582,72.0109 L 70.152,71.8702
 L 70.3432,71.7227 L 70.5311,71.5687 L 70.7156,71.4086 L 70.896,71.2429 L 71.0719,71.0719 L 71.2429,70.896
 L 71.4086,70.7156 L 71.5687,70.5311 L 71.7227,70.3432 L 71.8702,70.152 L 72.0109,69.9582 L 72.1444,69.7622
 L 72.2705,69.5645 L 72.3888,69.3655 L 72.4991,69.1658 L 72.601,68.9657 L 72.6943,68.7659 L 72.7789,68.5667
 L 72.8545,68.3686 L 72.9209,68.1722 L 72.9779,67.9779 L 73.0255,67.7862 L 73.0635,67.5974 L 73.0918,67.4122
 L 73.1103,67.2309 L 73.119,67.054 L 73.118,66.8819 L 73.1071,66.7149 L 73.0864,66.5536 L 73.056,66.3983
 L 73.0159,66.2493 L 72.9663,66.1071 L 72.9072,65.972 L 72.8388,65.8443 L 72.7612,65.7242 L 72.6747,65.6122
 L 72.5795,65.5084 L 71.8844,64.8134 L 71.7807,64.7181 L 71.7646,64.7057 L 74.0264,62.244 L 76.7472,59.109
 L 79.3645,55.9131 L 81.8721,52.6639 L 84.264,49.3694 L 86.5344,46.0375 L 88.6778,42.6762 L 90.6891,39.2935
 L 92.5634,35.8976 L 94.2962,32.4968 L 95.8833,29.0992 L 97.3209,25.713 L 98.6055,22.3463 L 99.7341,19.0072
 L 100.704,15.7039 L 101.513,12.4442 L 102.158,9.23608 L 102.639,6.08716 L 102.955,3.00508 L 103.103,-0.00274658
 L 103.085,-2.92908 L 102.9,-5.76686 L 102.549,-8.50926 L 102.032,-11.1497 L 101.35,-13.6817 L 101.081,-14.4521
 L 101.509,-13.8978 L 102.781,-11.9293 L 103.903,-9.83444 L 104.872,-7.61819 L 105.686,-5.28592 L 106.343,-2.84323
 L 106.842,-0.296005 L 107.181,2.34959 L 107.36,5.08722 L 107.377,7.91028 L 107.234,10.812 L 106.93,13.7853
 L 106.466,16.823 L 105.843,19.918 L 105.063,23.0626 L 104.127,26.2493 L 103.038,29.4705 L 101.799,32.7184
 L 100.412,35.9851 L 98.881,39.2628 L 97.2094,42.5436 L 95.4012,45.8196 L 93.461,49.0829 L 91.3932,52.3256
 L 89.2029,55.5399 L 86.8955,58.7181 L 84.4763,61.8526 L 81.9514,64.9357 L 79.3267,67.9601 L 76.8957,70.6058
 L 76.7918,70.5501 L 76.6702,70.4969 L 76.5422,70.4522 L 76.4081,70.4162 L 76.2683,70.3888 L 76.1232,70.3702
 L 75.9729,70.3604 L 75.818,70.3595 L 75.6588,70.3673 L 75.4956,70.384 L 75.3289,70.4095 L 75.159,70.4436
 L 74.9865,70.4865 L 74.8116,70.5378 L 74.6348,70.5976 L 74.4566,70.6656 L 74.2773,70.7417 L 74.0974,70.8257
 L 73.9174,70.9174 L 73.7376,71.0167 L 73.5585,71.1231 L 73.3806,71.2366 L 73.2042,71.3568 L 73.0298,71.4834
 L 72.8577,71.6162 L 72.6886,71.7548 L 72.5226,71.8988 L 72.3602,72.048 L 72.2019,72.2019 L 72.048,72.3602
 L 71.8988,72.5226 L 71.7548,72.6886 L 71.6162,72.8577 L 71.4834,73.0298 L 71.3568,73.2042 L 71.2366,73.3806
 L 71.1231,73.5585 L 71.0167,73.7376 L 70.9174,73.9174 L 70.8257,74.0974 L 70.7417,74.2773 L 70.6656,74.4566
 L 70.5976,74.6348 L 70.5378,74.8116 L 70.4865,74.9865 L 70.4436,75.159 L 70.4095,75.3289 L 70.384,75.4956
 L 70.3673,75.6588 L 70.3595,75.818 L 70.3604,75.9729 L 70.3702,76.1232 L 70.3888,76.2683 L 70.4162,76.4081
 L 70.4522,76.5422 L 70.4969,76.6702 L 70.5501,76.7918 L 70.6058,76.8957 L 67.9601,79.3267 L 64.9357,81.9514
 L 61.8526,84.4763 L 58.7181,86.8955 L 55.5399,89.2029 L 52.3256,91.3932 L 49.0829,93.461 L 45.8196,95.4012
 L 42.5436,97.2094 L 39.2628,98.881 L 35.9851,100.412 L 32.7184,101.799 L 29.4705,103.038 L 26.2493,104.127
 L 23.0626,105.063 L 19.918,105.843 L 16.823,106.466 L 13.7853,106.93 L 10.812,107.234 L 7.91028,107.377
 z
M 72.3287,70.9508 L 72.5203,70.8029 L 72.7151,70.6615 L 72.9126,70.5269 L 73.1127,70.3993 L 73.3149,70.2791
 L 73.519,70.1665 L 73.7245,70.0617 L 73.9312,69.9652 L 74.1389,69.877 L 74.3471,69.7976 L 74.5557,69.7271
 L 74.7643,69.6658 L 74.9728,69.6141 L 75.1808,69.5722 L 75.3881,69.5406 L 75.5945,69.5194 L 75.7997,69.5093
 L 76.0032,69.5106 L 76.2049,69.5237 L 76.4042,69.5493 L 76.6004,69.5877 L 76.6617,69.6042 L 78.6929,67.3935
 L 81.3015,64.3877 L 83.8109,61.3236 L 86.2148,58.2088 L 88.5078,55.0506 L 90.6835,51.8577 L 92.7372,48.637
 L 94.6636,45.397 L 96.4583,42.1453 L 98.117,38.89 L 99.6356,35.6389 L 101.01,32.4005 L 102.238,29.1831
 L 103.316,25.9934 L 104.242,22.8405 L 105.013,19.7317 L 105.628,16.6749 L 106.086,13.6776 L 106.386,10.7479
 L 106.527,7.89195 L 106.51,5.11752 L 106.335,2.43132 L 106.003,-0.160126 L 105.515,-2.65108 L 104.873,-5.03502
 L 104.08,-7.30737 L 103.301,-9.08852 L 103.388,-8.6451 L 103.746,-5.84862 L 103.935,-2.9594 L 103.953,0.0156097
 L 103.802,3.06935 L 103.483,6.19464 L 102.995,9.3842 L 102.342,12.6305 L 101.525,15.9261 L 100.545,19.2631
 L 99.4055,22.634 L 98.1094,26.0307 L 96.6598,29.4453 L 95.0601,32.8697 L 93.3143,36.2961 L 91.4267,39.7162
 L 89.4017,43.122 L 87.2442,46.5054 L 84.9593,49.8586 L 82.5526,53.1734 L 80.0299,56.4421 L 77.3971,59.6569
 L 74.6605,62.8102 L 72.9476,64.6744 L 73.1934,64.9202 L 73.3254,65.0641 L 73.4558,65.233 L 73.5717,65.4123
 L 73.6725,65.6005 L 73.7581,65.7963 L 73.8287,65.9985 L 73.8845,66.2059 L 73.926,66.4178 L 73.9536,66.6332
 L 73.9678,66.8515 L 73.9692,67.0723 L 73.9582,67.2952 L 73.9352,67.5197 L 73.9007,67.7455 L 73.855,67.9725
 L 73.7986,68.2001 L 73.7316,68.4281 L 73.6545,68.6564 L 73.5674,68.8844 L 73.4709,69.1119 L 73.3649,69.3387
 L 73.25,69.5642 L 73.1264,69.7882 L 72.9943,70.0103 L 72.8541,70.2302 L 72.7061,70.4474 L 72.5507,70.6615
 L 72.388,70.8722 L 72.3135,70.9633 z
M 73.9733,69.3358 L 74.0777,69.09 L 74.1721,68.8425 L 74.2562,68.5937 L 74.3296,68.3438 L 74.3918,68.093
 L 74.4424,67.8414 L 74.4809,67.5893 L 74.5068,67.3368 L 74.5193,67.0842 L 74.5177,66.8319 L 74.5013,66.5803
 L 74.4692,66.3299 L 74.4206,66.0815 L 74.3546,65.8362 L 74.2704,65.5952 L 74.1676,65.3601 L 74.0459,65.1328
 L 73.9053,64.9151 L 73.7464,64.7094 L 73.7044,64.6636 L 75.0708,63.1766 L 77.8176,60.0115 L 80.4604,56.7844
 L 82.993,53.5031 L 85.4092,50.175 L 87.7034,46.8082 L 89.87,43.4104 L 91.9039,39.9897 L 93.8003,36.5539
 L 95.5544,33.111 L 97.1622,29.6692 L 98.6196,26.2362 L 99.9232,22.8201 L 101.069,19.4287 L 102.056,16.0698
 L 102.879,12.751 L 103.537,9.48003 L 104.028,6.26421 L 104.351,3.11095 L 104.503,0.0274963 L 104.485,-2.97902
 L 104.366,-4.80527 L 104.979,-2.5266 L 105.459,-0.0721436 L 105.787,2.48418 L 105.96,5.13707 L 105.977,7.88026
 L 105.837,10.706 L 105.54,13.6082 L 105.087,16.579 L 104.476,19.6111 L 103.711,22.6967 L 102.792,25.8278
 L 101.721,28.9968 L 100.5,32.1949 L 99.133,35.4154 L 97.6226,38.6487 L 95.9726,41.8871 L 94.1864,45.1235
 L 92.2688,48.3485 L 90.2241,51.5551 L 88.0578,54.7343 L 85.7748,57.8788 L 83.3803,60.9812 L 80.8808,64.0333
 L 78.2824,67.0273 L 76.4673,69.0029 L 76.2578,68.976 L 76.0228,68.9607 L 75.7878,68.9592 L 75.5529,68.9708
 L 75.3185,68.9948 L 75.0849,69.0305 L 74.8522,69.0773 L 74.6205,69.1348 L 74.3901,69.2025 L 74.1609,69.2799
 L 73.9644,69.3549 z
M 10.7479,106.386 L 13.6776,106.086 L 16.6749,105.628 L 19.7317,105.013 L 22.8405,104.242 L 25.9934,103.316
 L 29.1831,102.238 L 32.4005,101.01 L 35.6389,99.6356 L 38.89,98.117 L 42.1453,96.4583 L 45.397,94.6636
 L 48.637,92.7372 L 51.8577,90.6835 L 55.0506,88.5078 L 58.2088,86.2148 L 61.3236,83.8109 L 64.3877,81.3015
 L 67.3935,78.6929 L 69.6042,76.6617 L 69.5877,76.6004 L 69.5493,76.4042 L 69.5237,76.2049 L 69.5106,76.0032
 L 69.5093,75.7997 L 69.5194,75.5945 L 69.5406,75.3881 L 69.5722,75.1808 L 69.6141,74.9728 L 69.6658,74.7643
 L 69.7271,74.5557 L 69.7976,74.3471 L 69.877,74.1389 L 69.9652,73.9312 L 70.0617,73.7245 L 70.1665,73.519
 L 70.2791,73.3149 L 70.3993,73.1127 L 70.5269,72.9126 L 70.6615,72.7151 L 70.8029,72.5203 L 70.9508,72.3287
 L 70.9633,72.3135 L 70.8722,72.388 L 70.6615,72.5507 L 70.4474,72.7061 L 70.2302,72.8541 L 70.0103,72.9943
 L 69.7882,73.1264 L 69.5642,73.25 L 69.3387,73.3649 L 69.1119,73.4709 L 68.8844,73.5674 L 68.6564,73.6545
 L 68.4281,73.7316 L 68.2001,73.7986 L 67.9725,73.855 L 67.7455,73.9007 L 67.5197,73.9352 L 67.2952,73.9582
 L 67.0723,73.9692 L 66.8515,73.9678 L 66.6332,73.9536 L 66.4178,73.926 L 66.2059,73.8845 L 65.9985,73.8287
 L 65.7963,73.7581 L 65.6005,73.6725 L 65.4123,73.5717 L 65.233,73.4558 L 65.0641,73.3254 L 64.9202,73.1934
 L 64.6744,72.9476 L 62.8102,74.6605 L 59.6569,77.3971 L 56.4421,80.0299 L 53.1734,82.5526 L 49.8586,84.9593
 L 46.5054,87.2442 L 43.122,89.4017 L 39.7162,91.4267 L 36.2961,93.3143 L 32.8697,95.0601 L 29.4453,96.6598
 L 26.0307,98.1094 L 22.634,99.4055 L 19.2631,100.545 L 15.9261,101.525 L 12.6305,102.342 L 9.3842,102.995
 L 6.19464,103.483 L 3.06935,103.802 L 0.0156097,103.953 L -2.9594,103.935 L -5.84862,103.746 L -8.6451,103.388
 L -9.08852,103.301 L -7.30737,104.08 L -5.03502,104.873 L -2.65108,105.515 L -0.160126,106.003 L 2.43132,106.335
 L 5.11752,106.51 L 7.89195,106.527 z
M 5.13707,105.96 L 2.48418,105.787 L -0.0721436,105.459 L -2.5266,104.979 L -4.80527,104.366 L -2.97902,104.485
 L 0.0274963,104.503 L 3.11095,104.351 L 6.26421,104.028 L 9.48003,103.537 L 12.751,102.879 L 16.0698,102.056
 L 19.4287,101.069 L 22.8201,99.9232 L 26.2362,98.6196 L 29.6692,97.1622 L 33.111,95.5544 L 36.5539,93.8003
 L 39.9897,91.9039 L 43.4104,89.87 L 46.8082,87.7034 L 50.175,85.4092 L 53.5031,82.993 L 56.7844,80.4604
 L 60.0115,77.8176 L 63.1766,75.0708 L 64.6636,73.7044 L 64.7094,73.7464 L 64.9151,73.9053 L 65.1328,74.0459
 L 65.3601,74.1676 L 65.5952,74.2704 L 65.8362,74.3546 L 66.0815,74.4206 L 66.3299,74.4692 L 66.5803,74.5013
 L 66.8319,74.5177 L 67.0842,74.5193 L 67.3368,74.5068 L 67.5893,74.4809 L 67.8414,74.4424 L 68.093,74.3918
 L 68.3438,74.3296 L 68.5937,74.2562 L 68.8425,74.1721 L 69.09,74.0777 L 69.3358,73.9733 L 69.3549,73.9644
 L 69.2799,74.1609 L 69.2025,74.3901 L 69.1348,74.6205 L 69.0773,74.8522 L 69.0305,75.0849 L 68.9948,75.3185
 L 68.9708,75.5529 L 68.9592,75.7878 L 68.9607,76.0228 L 68.976,76.2578 L 69.0029,76.4673 L 67.0273,78.2824
 L 64.0333,80.8808 L 60.9812,83.3803 L 57.8788,85.7748 L 54.7343,88.0578 L 51.5551,90.2241 L 48.3485,92.2688
 L 45.1235,94.1864 L 41.8871,95.9726 L 38.6487,97.6226 L 35.4154,99.133 L 32.1949,100.5 L 28.9968,101.721
 L 25.8278,102.792 L 22.6967,103.711 L 19.6111,104.476 L 16.579,105.087 L 13.6082,105.54 L 10.706,105.837
 L 7.88026,105.977 z
M 68.3326,69.0596 L 68.353,69.0196 L 68.375,68.9797 L 68.3987,68.9399 L 68.4239,68.9003 L 68.4506,68.8611
 L 68.4787,68.8224 L 68.5082,68.7841 L 68.539,68.7465 L 68.571,68.7097 L 68.6042,68.6736 L 68.6384,68.6384
 L 68.6736,68.6042 L 68.7097,68.571 L 68.7465,68.539 L 68.7841,68.5082 L 68.8224,68.4787 L 68.8611,68.4506
 L 68.9003,68.4239 L 68.9399,68.3987 L 68.9797,68.375 L 69.0196,68.353 L 69.0596,68.3326 L 69.0609,68.332
 L 69.0603,68.3333 L 69.0399,68.3733 L 69.0179,68.4132 L 68.9942,68.453 L 68.969,68.4926 L 68.9423,68.5318
 L 68.9141,68.5705 L 68.8846,68.6087 L 68.8538,68.6463 L 68.8218,68.6832 L 68.7887,68.7193 L 68.7545,68.7545
 L 68.7193,68.7887 L 68.6832,68.8218 L 68.6463,68.8538 L 68.6087,68.8846 L 68.5705,68.9141 L 68.5318,68.9423
 L 68.4926,68.969 L 68.453,68.9942 L 68.4132,69.0179 L 68.3733,69.0399 L 68.3333,69.0603 L 68.332,69.0609
 z
" stroke="black" fill="lightgray" stroke-width="0.5"/>
</svg>
